<svg id='Content_Book_24' width='24' height='24' viewBox='0 0 24 24' xmlns='http://www.w3.org/2000/svg' xmlns:xlink='http://www.w3.org/1999/xlink'><rect width='24' height='24' stroke='none' fill='#000000' opacity='0'/>


<g transform="matrix(1.43 0 0 1.43 12 12)" >
<g style="" >
<g transform="matrix(1 0 0 1 -0.5 5)" >
<path style="stroke: none; stroke-width: 1; stroke-dasharray: none; stroke-linecap: butt; stroke-dashoffset: 0; stroke-linejoin: miter; stroke-miterlimit: 4; fill: rgb(255,255,255); fill-rule: nonzero; opacity: 1;" transform=" translate(-6.5, -12)" d="M 3 13.5 L 11.5 13.5 L 11.5 10.5 L 3 10.5 C 2.60218 10.5 2.22064 10.658 1.93934 10.9393 C 1.65804 11.2206 1.5 11.6022 1.5 12 C 1.5 12.3978 1.65804 12.7794 1.93934 13.0607 C 2.22064 13.342 2.60218 13.5 3 13.5 Z" stroke-linecap="round" />
</g>
<g transform="matrix(1 0 0 1 0 -0.75)" >
<path style="stroke: none; stroke-width: 1; stroke-dasharray: none; stroke-linecap: butt; stroke-dashoffset: 0; stroke-linejoin: miter; stroke-miterlimit: 4; fill: rgb(148,233,134); fill-rule: nonzero; opacity: 1;" transform=" translate(-7, -6.25)" d="M 1.93934 10.9393 C 1.65804 11.2206 1.5 11.6022 1.5 12 L 1.5 1.96 C 1.51043 1.56915 1.67305 1.19782 1.95324 0.925105 C 2.23342 0.652394 2.60901 0.499861 3 0.5 L 11.5 0.5 C 11.7652 0.5 12.0196 0.605357 12.2071 0.792893 C 12.3946 0.98043 12.5 1.23478 12.5 1.5 L 12.5 9.5 C 12.5 9.76522 12.3946 10.0196 12.2071 10.2071 C 12.0196 10.3946 11.7652 10.5 11.5 10.5 L 3 10.5 C 2.60218 10.5 2.22064 10.658 1.93934 10.9393 Z" stroke-linecap="round" />
</g>
<g transform="matrix(1 0 0 1 0.02 0.02)" >
<path style="stroke: rgb(47,174,75); stroke-width: 1.048951048951049; stroke-dasharray: none; stroke-linecap: round; stroke-dashoffset: 0; stroke-linejoin: round; stroke-miterlimit: 4; fill: none; fill-rule: nonzero; opacity: 1;" transform=" translate(-7, -7)" d="M 12.5 13.5 L 3 13.5 C 2.60218 13.5 2.22064 13.342 1.93934 13.0607 C 1.65804 12.7794 1.5 12.3978 1.5 12 C 1.5 11.6022 1.65804 11.2206 1.93934 10.9393 C 2.22064 10.658 2.60218 10.5 3 10.5 L 11.5 10.5 C 11.7652 10.5 12.0196 10.3946 12.2071 10.2071 C 12.3946 10.0196 12.5 9.76522 12.5 9.5 L 12.5 1.5 C 12.5 1.23478 12.3946 0.98043 12.2071 0.792893 C 12.0196 0.605357 11.7652 0.5 11.5 0.5 L 3 0.5 C 2.60901 0.499861 2.23342 0.652394 1.95324 0.925105 C 1.67305 1.19782 1.51043 1.56915 1.5 1.96 L 1.5 11.96" stroke-linecap="round" />
</g>
<g transform="matrix(1 0 0 1 4.52 5.02)" >
<path style="stroke: rgb(47,174,75); stroke-width: 1.048951048951049; stroke-dasharray: none; stroke-linecap: round; stroke-dashoffset: 0; stroke-linejoin: round; stroke-miterlimit: 4; fill: none; fill-rule: nonzero; opacity: 1;" transform=" translate(-11.5, -12)" d="M 11.5 10.5 L 11.5 13.5" stroke-linecap="round" />
</g>
</g>
</g>
</svg>